<svg width="113" height="120" viewBox="0 0 113 120" fill="none" xmlns="http://www.w3.org/2000/svg">
<rect width="112.5" height="120" fill="white"/>
<path fill-rule="evenodd" clip-rule="evenodd" d="M92.7081 16.1356L92.6656 16.7208C92.6554 16.8618 92.6444 17.0023 92.6326 17.1423L92.4515 19.2989L90.7887 17.9194C90.0577 17.3129 89.3104 16.7254 88.5476 16.1578L89.693 14.2211C90.1797 14.4463 90.6665 14.6767 91.1534 14.9125L91.264 14.9661L91.3605 15.0422C91.6614 15.2797 91.9598 15.5201 92.2557 15.7634L92.7081 16.1356ZM40.8367 10.4499L40.8791 10.4363C45.8151 8.85381 51.0746 8 56.5307 8C69.9643 8 82.1954 13.1749 91.3459 21.6434L91.8483 22.1084L91.67 22.7704C91.6358 22.8975 91.6008 23.024 91.5649 23.1499L91.0597 24.9248L89.7115 23.6684C81.0078 15.5579 69.3479 10.5995 56.5307 10.5995C50.0921 10.5995 43.9477 11.8505 38.3238 14.1224L37.3725 12.0729C38.4699 11.4881 39.611 10.9528 40.7954 10.4668L40.8367 10.4499ZM18.3267 97.5299L19.9821 99.0687C20.311 99.3743 20.6437 99.6759 20.9801 99.9734L19.6522 101.792C19.298 101.579 18.9443 101.362 18.5913 101.142L18 100.773L18.0636 100.077C18.0726 99.9786 18.0822 99.88 18.0925 99.7814L18.3267 97.5299ZM19.1327 94.7986L19.36 94.1411C19.4025 94.0181 19.446 93.8952 19.4904 93.7723L20.1087 92.0623L21.3652 93.374C30.239 102.637 42.7128 108.4 56.5307 108.4C67.9556 108.4 78.46 104.461 86.7714 97.8618L88.3356 99.4778C87.9349 99.9556 87.5165 100.423 87.0803 100.879L87.0131 100.949L86.9348 101.007C78.423 107.288 67.9074 111 56.5307 111C42.0403 111 28.9501 104.979 19.615 95.2988L19.1327 94.7986ZM90.7138 25.6921L90.402 26.4068C90.3518 26.5219 90.3008 26.6363 90.249 26.7502L89.5788 28.2237L88.4294 27.0859C80.2278 18.967 68.9637 13.9574 56.5307 13.9574C45.1447 13.9574 34.7398 18.1586 26.769 25.1012L25.0608 23.6651C25.257 23.3365 25.4591 23.012 25.667 22.6915L25.7604 22.5476L25.8921 22.438C34.2045 15.5188 44.8846 11.3579 56.5307 11.3579C69.6264 11.3579 81.4992 16.6187 90.1587 25.1455L90.7138 25.6921ZM94.7693 74.2173L94.9676 78.4845C94.9785 78.7192 94.9868 78.9549 94.9927 79.1916L95 79.4868L94.8626 79.748C87.606 93.5379 73.1642 102.941 56.5307 102.941C43.3402 102.941 31.5259 97.0266 23.583 87.7015L22.9993 87.0162L23.5345 86.2922C23.6055 86.1962 23.6768 86.1009 23.7486 86.0062L24.5974 84.8862L25.5065 85.9575C32.9779 94.7606 44.1038 100.342 56.5307 100.342C72.3706 100.342 86.1002 91.272 92.8347 78.0232L94.7693 74.2173ZM20.4975 91.3176L20.8426 90.6239C20.8977 90.5131 20.9536 90.4023 21.0103 90.2915L21.7558 88.8351L22.8511 90.049C31.162 99.2591 43.1721 105.043 56.5307 105.043C70.7673 105.043 83.4731 98.4736 91.8009 88.1886L93.7613 89.216C93.6774 89.5076 93.5892 89.7973 93.4967 90.0851L93.4288 90.2965L93.2863 90.4665C84.4826 100.966 71.2834 107.642 56.5307 107.642C42.4569 107.642 29.7964 101.566 21.0177 91.891L20.4975 91.3176ZM20.9773 39.1228L21.4127 34.8967C21.4369 34.6617 21.4637 34.4278 21.4931 34.1949L21.5302 33.9012L21.7059 33.6633C29.5953 22.9846 42.2567 16.0589 56.5307 16.0589C68.7987 16.0589 79.8771 21.1754 87.7567 29.3937L88.4164 30.0817L87.8516 30.85C87.7809 30.9461 87.7094 31.0417 87.6372 31.1367L86.8378 32.1883L85.9252 31.2339C78.5121 23.4821 68.084 18.6584 56.5307 18.6584C42.9072 18.6584 30.8459 25.3666 23.4514 35.674L20.9773 39.1228ZM70.5684 27.3963L69.8155 29.5241C68.9755 29.2925 68.1474 29.0836 67.3312 28.897L67.2694 28.8829L67.2095 28.8619C63.8678 27.6904 60.2746 27.0531 56.5307 27.0531C42.0748 27.0531 29.8306 36.5625 25.6835 49.687L24.8043 52.4695L23.5832 49.82C23.5098 49.6607 23.4381 49.5003 23.3681 49.3389L23.1966 48.9433L23.3311 48.5337C27.9206 34.5505 41.0485 24.4536 56.5307 24.4536C61.5215 24.4536 66.2707 25.5036 70.5684 27.3963ZM30.6324 58.6768L30.6628 58.1018C31.1887 48.1635 37.2817 39.7106 45.8667 35.8166L47.0843 35.2643L47.4234 36.5607C47.4472 36.6516 47.4733 36.742 47.5017 36.8318L47.8043 37.7888L46.893 38.2043C39.1182 41.7493 33.6293 49.4489 33.24 58.4709L33.1443 60.6901L31.4103 59.3081C31.2987 59.2191 31.1879 59.1298 31.0779 59.0401L30.6324 58.6768ZM79.2873 53.7979L81.3814 55.2245C81.5095 55.3118 81.6366 55.3995 81.7629 55.4876L82.1762 55.7762L82.2381 56.2775C82.3684 57.3338 82.4355 58.4093 82.4355 59.5C82.4355 69.0432 77.3044 77.3832 69.6635 81.8986L68.296 82.7067L67.984 81.1459C67.9638 81.045 67.9417 80.9448 67.9176 80.8453L67.7212 80.0332L68.4371 79.6058C75.2697 75.5268 79.8435 68.0485 79.8435 59.5C79.8435 58.4186 79.7704 57.3549 79.629 56.3135L79.2873 53.7979ZM54.1928 42.7443L54.492 42.8727C54.6814 42.954 54.8745 43.0345 55.0716 43.1142L55.0797 43.1175L59.0061 44.778L54.7926 45.2906C47.7302 46.1498 42.2579 52.1848 42.2579 59.5C42.2579 61.0784 42.5122 62.5949 42.981 64.012L43.8078 66.5105L41.431 65.3934C41.2897 65.327 41.1491 65.2603 41.0092 65.1933L40.5633 64.9798L40.4172 64.5064C39.9286 62.923 39.6659 61.2412 39.6659 59.5C39.6659 51.0656 45.8204 44.0751 53.8714 42.7954L54.1928 42.7443ZM65.3137 47.4447L70.1206 49.4772L70.3067 49.7409C72.2522 52.4984 73.3955 55.867 73.3955 59.5C73.3955 66.2145 69.4943 72.0129 63.8462 74.7438L63.2956 75.0101L62.7724 74.6931C62.6643 74.6275 62.5545 74.5625 62.443 74.4978L60.5637 73.4079L62.5327 72.4913C67.4189 70.2165 70.8036 65.2535 70.8036 59.5C70.8036 56.2378 69.7169 53.2335 67.8862 50.8267L65.3137 47.4447ZM40.8615 87.8946L40.9332 87.9342C45.5577 90.4914 50.873 91.9469 56.5307 91.9469C72.5927 91.9469 85.9228 80.207 88.4515 64.8165L88.9228 61.9479L90.5096 64.3809C90.6042 64.5261 90.6975 64.6719 90.7892 64.8185L91.0202 65.1875L90.9449 65.6166C88.0591 82.0562 73.7504 94.5464 56.5307 94.5464C49.6488 94.5464 43.2284 92.5501 37.8178 89.103L38.8545 87.1018C39.5005 87.3699 40.144 87.6245 40.7848 87.8657L40.8615 87.8946ZM90.957 16.5961C90.8099 16.4771 90.662 16.3589 90.5136 16.2415C90.4943 16.2262 90.475 16.211 90.4557 16.1957C90.0484 15.8744 89.6366 15.5587 89.2202 15.2488C89.7009 15.4712 90.1817 15.6989 90.6627 15.9318C90.9576 16.1645 91.25 16.4001 91.54 16.6386C91.5301 16.7754 91.5194 16.9116 91.508 17.0472C91.448 16.9975 91.3879 16.9478 91.3277 16.8983C91.2046 16.797 91.081 16.6963 90.957 16.5961ZM41.3247 11.8344C41.3331 11.8317 41.3415 11.829 41.3499 11.8263C46.1367 10.2944 51.2374 9.46766 56.5307 9.46766C69.3487 9.46766 81.0376 14.3159 89.8737 22.2838C90.0346 22.4288 90.1945 22.5749 90.3534 22.722C90.3956 22.761 90.4377 22.8001 90.4797 22.8393C90.5141 22.7185 90.5477 22.5972 90.5805 22.4752C81.6302 14.192 69.6697 9.13187 56.5307 9.13187C51.1926 9.13187 46.049 9.96712 41.2227 11.5144C40.072 11.9865 38.9652 12.5059 37.9021 13.0724C39.0234 12.6195 40.1648 12.2062 41.3247 11.8344ZM20.2337 100.822C20.0067 100.622 19.7813 100.419 19.5576 100.215C19.4743 100.138 19.3913 100.062 19.3084 99.9855C19.2772 99.9566 19.2461 99.9277 19.215 99.8988C19.2052 99.9927 19.196 100.087 19.1874 100.181C19.5357 100.398 19.8844 100.612 20.2337 100.822ZM21.1364 94.7588C20.9789 94.5998 20.8224 94.4396 20.667 94.2785C20.6284 94.2384 20.5899 94.1983 20.5514 94.1582C20.5088 94.2761 20.4671 94.394 20.4263 94.5119C29.5575 103.981 42.3586 109.868 56.5307 109.868C67.6587 109.868 77.9414 106.238 86.2659 100.095C86.6852 99.6566 87.0872 99.208 87.4719 98.7493C87.0103 99.1158 86.5421 99.4743 86.0674 99.8245C86.0518 99.8361 86.0362 99.8476 86.0206 99.8591C77.7599 105.94 67.5636 109.532 56.5307 109.532C42.6943 109.532 30.1735 103.883 21.1364 94.7588ZM26.9069 23.5008C34.9546 16.8322 45.2761 12.8255 56.5307 12.8255C68.903 12.8255 80.1477 17.6675 88.4836 25.565C88.7022 25.7721 88.9189 25.9814 89.1335 26.1927C89.1631 26.2219 89.1927 26.2511 89.2223 26.2804C89.2716 26.1719 89.3202 26.0628 89.3681 25.9531C80.911 17.6257 69.3189 12.4897 56.5307 12.4897C45.1574 12.4897 34.7302 16.5521 26.6129 23.3089C26.4127 23.6175 26.218 23.9301 26.029 24.2466C26.2923 24.0173 26.5583 23.7908 26.8268 23.5673C26.8535 23.5451 26.8802 23.5229 26.9069 23.5008ZM93.8402 78.5372C93.7508 78.7132 93.6601 78.8884 93.5683 79.0629C93.5391 79.1184 93.5097 79.1739 93.4803 79.2292C86.4391 92.4653 72.5338 101.473 56.5307 101.473C44.1737 101.473 33.0675 96.1025 25.4064 87.5613C25.1661 87.2934 24.9292 87.0223 24.6957 86.7482C24.6795 86.7292 24.6633 86.7102 24.6471 86.6911C24.5781 86.7822 24.5094 86.8739 24.4411 86.9663C32.1787 96.0504 43.6842 101.809 56.5307 101.809C72.7292 101.809 86.7955 92.653 93.8645 79.2197C93.8588 78.9912 93.8507 78.7637 93.8402 78.5372ZM22.7023 91.5544C22.4995 91.3393 22.2988 91.1222 22.1001 90.9032C22.0714 90.8717 22.0429 90.8401 22.0143 90.8085C21.9596 90.9154 21.9056 91.0223 21.8524 91.1292C30.4263 100.579 42.7878 106.51 56.5307 106.51C70.9363 106.51 83.824 99.993 92.4225 89.738C92.5114 89.4613 92.5963 89.1827 92.677 88.9021C92.5085 89.1102 92.3382 89.3168 92.1663 89.5219C92.1369 89.5569 92.1076 89.5919 92.0781 89.6267C83.5412 99.7481 70.7843 106.174 56.5307 106.174C43.2044 106.174 31.1864 100.557 22.7023 91.5544ZM86.7397 30.4505C86.8083 30.3603 86.8761 30.2695 86.9432 30.1782C79.2676 22.1726 68.4792 17.1908 56.5307 17.1908C42.6294 17.1908 30.2985 23.9341 22.6127 34.3372C22.5844 34.5613 22.5586 34.7866 22.5353 35.013C22.6497 34.8535 22.7652 34.6949 22.8818 34.5371C22.9191 34.4865 22.9566 34.436 22.9942 34.3856C30.6264 24.1511 42.8072 17.5266 56.5307 17.5266C67.9938 17.5266 78.3805 22.1485 85.9391 29.6357C86.1967 29.8908 86.451 30.1493 86.7019 30.411C86.7145 30.4241 86.7271 30.4373 86.7397 30.4505ZM24.8162 48.7074C29.2979 35.4568 41.804 25.9212 56.5307 25.9212C60.4032 25.9212 64.1221 26.5806 67.5819 27.7934C68.415 27.9838 69.2592 28.1969 70.1146 28.4327C69.3226 28.0839 68.5148 27.7646 67.6924 27.4764C67.6806 27.4722 67.6687 27.468 67.6568 27.4639C64.1725 26.2469 60.4286 25.5855 56.5307 25.5855C41.5502 25.5855 28.8448 35.3548 24.4031 48.8876C24.4697 49.0411 24.5378 49.1936 24.6077 49.3451C24.6449 49.2273 24.6827 49.1098 24.7212 48.9926C24.7525 48.8974 24.7841 48.8023 24.8162 48.7074ZM32.1532 57.7135C32.8107 48.5586 38.4813 40.7963 46.4259 37.1739C46.3918 37.0659 46.3604 36.9573 46.3318 36.8479C46.317 36.8546 46.3021 36.8614 46.2873 36.8681C45.9537 37.0203 45.624 37.1796 45.2985 37.346C37.6333 41.2626 32.2713 49.063 31.7898 58.1618C31.8965 58.2488 32.0041 58.3355 32.1125 58.4219C32.116 58.3411 32.1199 58.2603 32.1242 58.1796C32.1324 58.0238 32.1421 57.8684 32.1532 57.7135ZM80.7472 56.1608C80.8718 56.2456 80.9954 56.3308 81.118 56.4165C81.2427 57.4268 81.3069 58.4559 81.3069 59.5C81.3069 68.2207 76.8275 75.8921 70.0504 80.3263C69.7662 80.5122 69.4779 80.6925 69.1857 80.867C69.154 80.8859 69.1223 80.9047 69.0906 80.9234C69.0675 80.8077 69.0421 80.6927 69.0144 80.5784C76.1747 76.3038 80.9721 68.4638 80.9721 59.5C80.9721 58.5987 80.9236 57.7088 80.8291 56.8327C80.8156 56.7075 80.8011 56.5825 80.7857 56.4578C80.7735 56.3586 80.7607 56.2596 80.7472 56.1608ZM41.7108 63.719C41.332 62.378 41.1293 60.9627 41.1293 59.5C41.1293 51.8717 46.6431 45.5349 53.8917 44.2797C53.9611 44.2676 54.0307 44.2561 54.1004 44.245C54.2817 44.2162 54.4641 44.1905 54.6474 44.1681C54.6474 44.1681 54.6475 44.1681 54.6474 44.1681C54.6505 44.1677 54.6536 44.1673 54.6567 44.167L54.6492 44.1638C54.4452 44.0812 54.2448 43.9977 54.048 43.9133C46.5367 45.1072 40.7945 51.6311 40.7945 59.5C40.7945 61.1265 41.0398 62.6955 41.4953 64.1718C41.6328 64.2376 41.771 64.3032 41.9099 64.3685C41.8774 64.2702 41.8459 64.1716 41.8153 64.0725C41.7791 63.9553 41.7443 63.8375 41.7108 63.719ZM68.7835 50.1402C68.8956 50.2876 69.0052 50.4371 69.1121 50.5886C69.1523 50.6457 69.1921 50.7029 69.2316 50.7605C70.9351 53.2459 71.9321 56.2562 71.9321 59.5C71.9321 65.4421 68.5866 70.6005 63.6816 73.184C63.5261 73.2658 63.3691 73.3451 63.2106 73.4217C63.1433 73.4543 63.0758 73.4863 63.0079 73.5179C63.1256 73.5862 63.2417 73.655 63.3561 73.7243C68.6287 71.1749 72.267 65.7635 72.267 59.5C72.267 56.1087 71.2004 52.9673 69.3854 50.3947L68.7835 50.1402ZM40.2266 89.2195C39.6135 88.8805 39.012 88.523 38.4229 88.1476C39.0803 88.4205 39.7355 88.6797 40.3883 88.9254C45.1754 91.5725 50.6777 93.0788 56.5307 93.0788C72.9232 93.0788 86.5642 81.2641 89.4496 65.6621C89.468 65.5623 89.486 65.4623 89.5036 65.3621C89.5247 65.2418 89.5452 65.1213 89.5651 65.0005C89.656 65.1399 89.7454 65.2798 89.8334 65.4204C87.041 81.3283 73.1932 93.4145 56.5307 93.4145C50.6365 93.4145 45.0944 91.9021 40.2694 89.2432C40.2551 89.2353 40.2409 89.2274 40.2266 89.2195ZM56.5307 66.0912C60.1604 66.0912 63.1028 63.1402 63.1028 59.5C63.1028 55.8598 60.1604 52.9088 56.5307 52.9088C52.901 52.9088 49.9586 55.8598 49.9586 59.5C49.9586 63.1402 52.901 66.0912 56.5307 66.0912ZM65.6948 59.5C65.6948 64.5759 61.5919 68.6908 56.5307 68.6908C51.4695 68.6908 47.3666 64.5759 47.3666 59.5C47.3666 54.4241 51.4695 50.3092 56.5307 50.3092C61.5919 50.3092 65.6948 54.4241 65.6948 59.5ZM64.2314 59.5C64.2314 63.7654 60.7837 67.2231 56.5307 67.2231C52.2777 67.2231 48.83 63.7654 48.83 59.5C48.83 55.2346 52.2777 51.7769 56.5307 51.7769C60.7837 51.7769 64.2314 55.2346 64.2314 59.5ZM64.5662 59.5C64.5662 63.9508 60.9686 67.5589 56.5307 67.5589C52.0928 67.5589 48.4952 63.9508 48.4952 59.5C48.4952 55.0492 52.0928 51.4411 56.5307 51.4411C60.9686 51.4411 64.5662 55.0492 64.5662 59.5Z" fill="url(#paint0_linear)"/>
<defs>
<linearGradient id="paint0_linear" x1="56.5261" y1="9.13187" x2="89.2282" y2="107.018" gradientUnits="userSpaceOnUse">
<stop stop-color="#F93583"/>
<stop offset="0.479167" stop-color="#D6751C"/>
<stop offset="1" stop-color="#AF01FB"/>
</linearGradient>
</defs>
</svg>
